<?xml version="1.0" standalone="no"?>
<!DOCTYPE svg PUBLIC "-//W3C//DTD SVG 1.1//EN" "http://www.w3.org/Graphics/SVG/1.1/DTD/svg11.dtd">
<svg xmlns="http://www.w3.org/2000/svg" xmlns:xlink="http://www.w3.org/1999/xlink" id="visual" viewBox="0 0 900 600" width="900" height="600" version="1.1"><rect x="0" y="0" width="900" height="600" fill="#0000b4"/><path d="M0 384L21.5 378.5C43 373 86 362 128.8 368.7C171.7 375.3 214.3 399.7 257.2 401.5C300 403.3 343 382.7 385.8 381.2C428.7 379.7 471.3 397.3 514.2 400C557 402.7 600 390.3 642.8 381.2C685.7 372 728.3 366 771.2 369.5C814 373 857 386 878.5 392.5L900 399L900 601L878.5 601C857 601 814 601 771.2 601C728.3 601 685.7 601 642.8 601C600 601 557 601 514.2 601C471.3 601 428.7 601 385.8 601C343 601 300 601 257.2 601C214.3 601 171.7 601 128.8 601C86 601 43 601 21.5 601L0 601Z" fill="#f7770f"/><path d="M0 442L21.5 448.3C43 454.7 86 467.3 128.8 472.3C171.7 477.3 214.3 474.7 257.2 460.8C300 447 343 422 385.8 410C428.7 398 471.3 399 514.2 410.2C557 421.3 600 442.7 642.8 453C685.7 463.3 728.3 462.7 771.2 453.5C814 444.3 857 426.7 878.5 417.8L900 409L900 601L878.5 601C857 601 814 601 771.2 601C728.3 601 685.7 601 642.8 601C600 601 557 601 514.2 601C471.3 601 428.7 601 385.8 601C343 601 300 601 257.2 601C214.3 601 171.7 601 128.8 601C86 601 43 601 21.5 601L0 601Z" fill="#f98619"/><path d="M0 500L21.5 495.5C43 491 86 482 128.8 477C171.7 472 214.3 471 257.2 471.8C300 472.7 343 475.3 385.8 482.2C428.7 489 471.3 500 514.2 503.5C557 507 600 503 642.8 491.5C685.7 480 728.3 461 771.2 455.2C814 449.3 857 456.7 878.5 460.3L900 464L900 601L878.5 601C857 601 814 601 771.2 601C728.3 601 685.7 601 642.8 601C600 601 557 601 514.2 601C471.3 601 428.7 601 385.8 601C343 601 300 601 257.2 601C214.3 601 171.7 601 128.8 601C86 601 43 601 21.5 601L0 601Z" fill="#fa9424"/><path d="M0 495L21.5 492.8C43 490.7 86 486.3 128.8 485.5C171.7 484.7 214.3 487.3 257.2 494.8C300 502.3 343 514.7 385.8 522.3C428.7 530 471.3 533 514.2 530.2C557 527.3 600 518.7 642.8 516.7C685.7 514.7 728.3 519.3 771.2 514.5C814 509.7 857 495.3 878.5 488.2L900 481L900 601L878.5 601C857 601 814 601 771.2 601C728.3 601 685.7 601 642.8 601C600 601 557 601 514.2 601C471.3 601 428.7 601 385.8 601C343 601 300 601 257.2 601C214.3 601 171.7 601 128.8 601C86 601 43 601 21.5 601L0 601Z" fill="#fba230"/><path d="M0 574L21.5 566C43 558 86 542 128.8 537.3C171.7 532.7 214.3 539.3 257.2 542.8C300 546.3 343 546.7 385.8 544.5C428.7 542.3 471.3 537.7 514.2 539.3C557 541 600 549 642.8 553.5C685.7 558 728.3 559 771.2 561.7C814 564.3 857 568.7 878.5 570.8L900 573L900 601L878.5 601C857 601 814 601 771.2 601C728.3 601 685.7 601 642.8 601C600 601 557 601 514.2 601C471.3 601 428.7 601 385.8 601C343 601 300 601 257.2 601C214.3 601 171.7 601 128.8 601C86 601 43 601 21.5 601L0 601Z" fill="#fcaf3c"/></svg>